D:\softs\github_david\PredSimResults\Falisse_et_al_2022\Falisse_et_al_2022_v1_GRF.mot
version=1
nRows=22
nColumns=19
inDegrees=yes
endheader
                time	   ground_force_r_vx	   ground_force_r_vy	   ground_force_r_vz	   ground_force_r_px	   ground_force_r_py	   ground_force_r_pz	   ground_torque_r_x	   ground_torque_r_y	   ground_torque_r_z	   ground_force_l_vx	   ground_force_l_vy	   ground_force_l_vz	   ground_force_l_px	   ground_force_l_py	   ground_force_l_pz	   ground_torque_l_x	   ground_torque_l_y	   ground_torque_l_z	
          0.00000000	        -73.44259195	         72.55400772	         21.65197976	          0.19876921	          0.00000000	          0.04494740	         -3.26111375	         -7.60480077	         14.42150269	         77.85822189	        441.88770449	          7.83583018	         -0.31060923	          0.00000000	         -0.05924627	         26.18019696	         -5.31116741	       -137.25440069	
          0.01102664	        -33.54165726	        213.11624851	         17.90336259	          0.20345432	          0.00000000	          0.04365462	         -9.30350841	         -5.10688740	         43.35942235	         71.64000803	        383.52223824	          4.42346269	         -0.30316987	          0.00000000	         -0.06134624	         23.52764729	         -5.77905365	       -116.27238703	
          0.02205328	        -39.04303749	        379.78809101	         -4.04239581	          0.20464300	          0.00000000	          0.04293581	        -16.30650817	         -0.85310063	         77.72097291	         63.87707054	        331.84177552	          1.89168972	         -0.29689154	          0.00000000	         -0.06334609	         21.02087791	         -5.63715958	        -98.52101430	
          0.03307992	        -60.55972993	        516.80849539	        -11.87140811	          0.20569578	          0.00000000	          0.04281907	        -22.12926150	         -0.21970790	        106.30532855	         57.36386642	        293.23608369	         -3.49216860	         -0.29542559	          0.00000000	         -0.06279446	         18.41360248	         -6.51377075	        -86.62944415	
          0.04410656	        -72.52894987	        599.85460973	        -12.93722221	          0.20774331	          0.00000000	          0.04322552	        -25.92902763	         -0.76733489	        124.61578448	         52.59709541	        248.23746200	         -9.62628055	         -0.29411658	          0.00000000	         -0.06128241	         15.21259085	         -7.60889681	        -73.01075394	
          0.05513320	        -87.84976044	        666.68623529	        -14.18010830	          0.21286335	          0.00000000	          0.04493896	        -29.96018729	         -2.00248708	        141.91306728	         45.49145036	        197.13061949	        -14.21291537	         -0.29235473	          0.00000000	         -0.05910185	         11.65078378	         -8.00070395	        -57.63206940	
          0.06615985	        -95.19054936	        710.83273454	        -16.36150669	          0.21869593	          0.00000000	          0.04687874	        -33.32294645	         -2.51308476	        155.45622471	         34.33291653	        143.14100223	        -17.84054725	         -0.29012305	          0.00000000	         -0.05605958	          8.02442409	         -7.84114039	        -41.52850468	
          0.07718649	        -94.43760816	        721.50523990	        -16.78448667	          0.22379274	          0.00000000	          0.04807338	        -34.68519555	         -2.76902748	        161.46763677	         17.25366260	         89.33094965	        -17.29171295	         -0.28736208	          0.00000000	         -0.05117678	          4.57167004	         -6.22028750	        -25.67032760	
          0.08821313	        -89.12731957	        720.86881444	        -16.46072122	          0.22867635	          0.00000000	          0.04862052	        -35.04901614	         -2.94713284	        164.84564586	         -2.91058448	         34.46161597	         -9.41609291	         -0.28252267	          0.00000000	         -0.03630895	          1.25126503	         -2.63553194	         -9.73618792	
          0.09923977	        -84.65541661	        723.23815547	        -16.56359137	          0.23494645	          0.00000000	          0.04814456	        -34.81998186	         -3.24970582	        169.92223952	         -0.70887033	          0.76386356	         -0.16073843	          0.00000000	          0.00000000	          0.00000000	          0.01133302	         -0.03368406	         -0.21008390	
          0.11026641	        -77.69234132	        714.83974906	        -16.48307175	          0.24161471	          0.00000000	          0.04708375	        -33.65733701	         -3.51578416	        172.71580179	          0.00023744	         -0.00019986	          0.00001058	          0.00000000	          0.00000000	          0.00000000	         -0.00000288	         -0.00000062	          0.00005281	
          0.12129305	        -68.97346525	        690.76183784	        -15.40301989	          0.24760643	          0.00000000	          0.04626833	        -31.96039625	         -3.82824208	        171.03706952	          0.00001729	         -0.00001235	          0.00000024	          0.00000000	          0.00000000	          0.00000000	         -0.00000018	         -0.00000019	          0.00000306	
          0.13231969	        -60.06614331	        662.74161754	        -14.94035396	          0.25303035	          0.00000000	          0.04569415	        -30.28341356	         -3.92136190	        167.69374528	          0.00006252	         -0.00003922	         -0.00000032	          0.00000000	          0.00000000	          0.00000000	         -0.00000057	         -0.00000098	          0.00000886	
          0.14334633	        -51.56190685	        635.43187881	        -15.03652647	          0.25818816	          0.00000000	          0.04525501	        -28.75647511	         -3.81260662	        164.06099039	          0.00073099	         -0.00041284	         -0.00001270	          0.00000000	          0.00000000	          0.00000000	         -0.00000660	         -0.00001424	          0.00008289	
          0.15437297	        -43.97900887	        611.50998637	        -15.60162206	          0.26336281	          0.00000000	          0.04487854	        -27.44367685	         -3.51696088	        161.04898564	         -0.00456884	          0.00236454	          0.00012681	          0.00000000	          0.00000000	          0.00000000	          0.00005026	          0.00011893	         -0.00040955	
          0.16539961	        -38.13965437	        592.65121517	        -16.47089910	          0.26888067	          0.00000000	          0.04448528	        -26.36425256	         -3.11826637	        159.35245582	         -0.00338851	          0.00163088	          0.00012542	          0.00000000	          0.00000000	          0.00000000	          0.00004042	          0.00010178	         -0.00023300	
          0.17642625	        -33.95606648	        579.20207988	        -16.99756539	          0.27472719	          0.00000000	          0.04405629	        -25.51749576	         -2.75197780	        159.12255726	         -0.00275251	          0.00124558	          0.00012563	          0.00000000	          0.00000000	          0.00000000	          0.00003165	          0.00008370	         -0.00013720	
          0.18745290	        -30.61110917	        569.80869502	        -17.27171434	          0.28067976	          0.00000000	          0.04362557	        -24.85822992	         -2.29543301	        159.93376901	         -0.00308758	          0.00132686	          0.00016355	          0.00000000	          0.00000000	          0.00000000	          0.00003470	          0.00009314	         -0.00010099	
          0.19847954	        -27.51915187	        563.24472425	        -17.36490991	          0.28667963	          0.00000000	          0.04320961	        -24.33758266	         -1.72364158	        161.47078938	         -0.00470996	          0.00193711	          0.00027778	          0.00000000	          0.00000000	          0.00000000	          0.00005284	          0.00013981	         -0.00007948	
          0.20950618	        -25.03612094	        558.30488338	        -17.58483397	          0.29263238	          0.00000000	          0.04281944	        -23.90630406	         -1.01121809	        163.37808803	         -0.00901790	          0.00357526	          0.00057750	          0.00000000	          0.00000000	          0.00000000	          0.00010289	          0.00026231	         -0.00001787	
          0.22053282	        -22.77389350	        554.58104041	        -17.81629452	          0.29859060	          0.00000000	          0.04246714	        -23.55147052	         -0.23953675	        165.59268480	         -0.01965515	          0.00755353	          0.00134687	          0.00000000	          0.00000000	          0.00000000	          0.00023131	          0.00055865	          0.00024182	
          0.23155946	        -21.48045955	        551.56592356	        -17.91820344	          0.30452434	          0.00000000	          0.04220625	        -23.27952873	          0.52343044	        167.96524721	         -0.04448081	          0.01665062	          0.00323382	          0.00000000	          0.00000000	          0.00000000	          0.00054592	          0.00123164	          0.00116651	
